<?xml version="1.0" encoding="UTF-8"?>
<svg id="Layer_2" data-name="Layer 2" xmlns="http://www.w3.org/2000/svg" viewBox="0 0 284.15 283.46">
  <defs>
    <style>
      .cls-1 {
        fill: #fff;
      }

      .cls-2 {
        fill: #fff;
      }
    </style>
  </defs>
  <g id="All">
    <g id="Logo_Only" data-name="Logo Only">
      <g id="Logo">
        <path id="C" class="cls-1" d="M141.87,198.43c-31.31,0-56.7-25.38-56.7-56.69s25.38-56.69,56.7-56.69c15.66,0,29.83,6.35,40.09,16.6l20.05-20.04c-15.39-15.39-36.65-24.91-60.14-24.91-46.97,0-85.05,38.07-85.05,85.04s38.08,85.04,85.05,85.04c23.49,0,44.75-9.53,60.14-24.93l-20.04-20.04c-10.26,10.27-24.43,16.62-40.09,16.62Z"/>
        <path id="G" class="cls-2" d="M284.15,140.73h-101.61l57.52,57.51c-19.58,33.99-56.28,56.87-98.32,56.87-62.62,0-113.39-50.76-113.39-113.39S79.11,28.35,141.73,28.35c31.31,0,59.66,12.69,80.18,33.21l20.04-20.04C216.3,15.86,180.87,0,141.73,0,63.46,0,0,63.46,0,141.73s63.46,141.73,141.73,141.73c49.84,0,93.66-25.73,118.93-64.62h.01c14.83-22.39,23.47-49.24,23.47-78.12Z"/>
      </g>
    </g>
  </g>
</svg>