<?xml version="1.0" encoding="UTF-8"?>
<svg width="300px" height="300px" viewBox="0 0 300 300" version="1.1" xmlns="http://www.w3.org/2000/svg" xmlns:xlink="http://www.w3.org/1999/xlink">
    <!-- Generator: Sketch 51.3 (57544) - http://www.bohemiancoding.com/sketch -->
    <title>gc_live_logo</title>
    <desc>Created with Sketch.</desc>
    <defs></defs>
    <g id="Page-1" stroke="none" stroke-width="1" fill="none" fill-rule="evenodd">
        <g id="Logos" transform="translate(-1759.000000, -2.000000)">
            <g id="gc_live_logo" transform="translate(1759.000000, 2.000000)">
                <circle id="Oval" fill="#FF9900" cx="150" cy="150" r="150"></circle>
                <path d="M220.409187,139.637191 C218.415047,113.738481 196.858927,93.3468075 170.560099,93.3468075 C155.795776,93.3468075 142.527677,99.7749959 133.375203,109.995287 C128.276635,107.388625 122.506583,105.917188 116.393432,105.917188 C95.6935625,105.917188 78.9115312,122.761432 78.8938229,143.546596 C78.9025468,145.882823 80.7642656,147.74762 83.0600989,147.74762 C85.355802,147.74762 87.2175208,145.882823 87.2262448,143.579289 C87.2267656,127.401193 100.284969,114.286543 116.393432,114.286543 C121.433406,114.286543 126.17325,115.572286 130.309318,117.832535 C131.259318,118.207717 132.293432,118.414336 133.376245,118.414467 C135.555151,118.414467 137.538615,117.577923 139.02976,116.209403 C146.669995,107.333701 157.961271,101.716163 170.560229,101.716163 C192.403849,101.716163 210.318953,118.598331 212.081974,140.079459 C212.102156,140.314063 212.107495,140.386641 212.112833,140.45935 C212.48575,144.296046 215.437443,147.373615 219.20476,147.921284 C231.69174,149.330082 241.393562,159.962303 241.393562,172.872034 C241.393562,186.738879 230.200724,197.980101 216.393562,197.980101 L76.826375,197.980101 C66.4710364,197.967547 58.076375,189.536598 58.076375,179.136497 C58.076375,168.736395 66.4710364,160.305446 76.826375,160.305446 C76.8275034,160.305446 112.227286,160.309631 183.025724,160.318 C189.936141,160.318 195.560099,165.933184 195.560099,172.873865 C195.560099,179.814153 189.970255,185.426068 183.060099,185.426068 L108.060099,185.426068 C105.758927,185.426068 103.893432,187.299626 103.893432,189.610745 C103.893432,191.921865 105.758927,193.795423 108.060099,193.795423 L182.762052,193.795423 C194.574031,193.795423 203.893432,184.435868 203.893432,172.872034 C203.893432,161.308461 194.574031,151.948644 183.060099,151.948644 C182.839005,151.948644 182.563484,151.941714 182.343953,151.948644 L76.8100989,151.932298 C61.8522864,151.932298 49.7267656,164.110365 49.7267656,179.132704 C49.7267656,194.155044 61.8522864,206.333111 76.8100989,206.333111 L215.400073,206.333111 C215.730021,206.342788 216.06088,206.349457 216.393432,206.349457 C234.802937,206.349457 249.726766,191.361118 249.726766,172.872034 C249.726766,155.74807 236.924943,141.629098 220.409187,139.637191 Z" id="Shape" fill="#FFFFFF" fill-rule="nonzero"></path>
            </g>
        </g>
    </g>
</svg>