<?xml version="1.0" encoding="UTF-8" standalone="no"?>
<svg
   width="100%"
   height="100%"
   viewBox="0 0 1920 1080"
   version="1.1"
   xml:space="preserve"
   style="fill-rule:evenodd;clip-rule:evenodd;stroke-linejoin:round;stroke-miterlimit:2;"
   id="svg6"
   sodipodi:docname="bg_light.svg"
   inkscape:version="1.3 (0e150ed6c4, 2023-07-21)"
   xmlns:inkscape="http://www.inkscape.org/namespaces/inkscape"
   xmlns:sodipodi="http://sodipodi.sourceforge.net/DTD/sodipodi-0.dtd"
   xmlns:xlink="http://www.w3.org/1999/xlink"
   xmlns="http://www.w3.org/2000/svg"
   xmlns:svg="http://www.w3.org/2000/svg"><sodipodi:namedview
     id="namedview6"
     pagecolor="#ffffff"
     bordercolor="#000000"
     borderopacity="0.25"
     inkscape:showpageshadow="2"
     inkscape:pageopacity="0.0"
     inkscape:pagecheckerboard="0"
     inkscape:deskcolor="#d1d1d1"
     inkscape:zoom="0.1671875"
     inkscape:cx="299.06542"
     inkscape:cy="660.93458"
     inkscape:window-width="2560"
     inkscape:window-height="1494"
     inkscape:window-x="-11"
     inkscape:window-y="-11"
     inkscape:window-maximized="1"
     inkscape:current-layer="svg6" /><rect
     style="fill-rule:evenodd;clip-rule:evenodd;stroke-linejoin:round;stroke-miterlimit:2;fill:#e6e6e6;fill-opacity:1"
     id="rect9"
     width="1920"
     height="1080"
     x="0"
     y="0" /><rect
     x="0"
     y="0"
     width="1920"
     height="1080"
     style="fill:url(#radialGradient10);fill-rule:evenodd"
     id="rect1"
     mask="url(#mask6)"
     inkscape:label="rect1" /><defs
     id="defs6"><linearGradient
       id="_Linear1"
       x1="0"
       y1="0"
       x2="1"
       y2="0"
       gradientUnits="userSpaceOnUse"
       gradientTransform="matrix(960,0,0,540,960,540)"><stop
         offset="0.13243243"
         style="stop-color:#e7e7e7;stop-opacity:1;"
         id="stop2" /><stop
         offset="1"
         style="stop-color:#d0d0d0;stop-opacity:1;"
         id="stop1" /></linearGradient><radialGradient
       id="_Radial2"
       cx="0"
       cy="0"
       r="1"
       gradientUnits="userSpaceOnUse"
       gradientTransform="matrix(74.695,0,0,74.695,948.811,540)"><stop
         offset="0"
         style="stop-color:rgb(213,213,213);stop-opacity:1"
         id="stop3" /><stop
         offset="1"
         style="stop-color:rgb(236,236,236);stop-opacity:1"
         id="stop4" /></radialGradient><radialGradient
       id="_Radial3"
       cx="0"
       cy="0"
       r="1"
       gradientUnits="userSpaceOnUse"
       gradientTransform="matrix(292.369,0,0,291.66,815.641,540)"><stop
         offset="0"
         style="stop-color:rgb(205,205,205);stop-opacity:1"
         id="stop5" /><stop
         offset="1"
         style="stop-color:rgb(237,237,237);stop-opacity:1"
         id="stop6" /></radialGradient><mask
       maskUnits="userSpaceOnUse"
       id="mask6"><g
         id="g8"
         transform="matrix(7.64502,0,0,7.64502,-6379.22,-3588.31)"><g
           id="g7"><path
             id="path6"
             d="m 961.626,598.33 c -32.216,0 -58.341,-26.115 -58.341,-58.33 0,-32.216 26.115,-58.33 58.341,-58.33 16.112,0 30.692,6.534 41.254,17.08 l 20.63,-20.62 c -15.84,-15.834 -37.715,-25.63 -61.884,-25.63 -48.329,0 -87.51,39.172 -87.51,87.5 0,48.329 39.181,87.5 87.51,87.5 24.169,0 46.044,-9.805 61.884,-25.651 l -20.62,-20.62 c -10.561,10.567 -25.141,17.101 -41.254,17.101 z"
             style="fill:url(#radialGradient8);fill-rule:nonzero" /><path
             id="path7"
             d="m 1108.01,538.971 h -104.55 l 59.18,59.173 c -20.14,34.974 -57.9,58.516 -101.159,58.516 -64.432,0 -116.67,-52.229 -116.67,-116.671 0,-64.441 52.228,-116.659 116.669,-116.659 32.216,0 61.39,13.057 82.5,34.171 l 20.62,-20.62 c -26.39,-26.392 -62.85,-42.711 -103.119,-42.711 -80.545,0 -145.84,65.286 -145.84,145.83 0,80.545 65.295,145.83 145.83,145.83 51.279,0 96.369,-26.474 122.369,-66.489 h 0.01 c 15.26,-23.038 24.15,-50.665 24.15,-80.38 z"
             style="fill:url(#radialGradient9);fill-rule:nonzero" /></g></g></mask><radialGradient
       inkscape:collect="always"
       xlink:href="#_Radial2"
       id="radialGradient8"
       gradientUnits="userSpaceOnUse"
       gradientTransform="matrix(74.695,0,0,74.695,948.811,540)"
       cx="0"
       cy="0"
       r="1" /><radialGradient
       inkscape:collect="always"
       xlink:href="#_Radial3"
       id="radialGradient9"
       gradientUnits="userSpaceOnUse"
       gradientTransform="matrix(292.369,0,0,291.66,815.641,540)"
       cx="0"
       cy="0"
       r="1" /><radialGradient
       inkscape:collect="always"
       xlink:href="#_Linear1"
       id="radialGradient10"
       cx="1136.837"
       cy="275.05453"
       fx="1136.837"
       fy="275.05453"
       r="960"
       gradientTransform="matrix(0.62238673,0.62272764,-0.65500105,0.65464243,641.95448,-336.03962)"
       gradientUnits="userSpaceOnUse"
       spreadMethod="pad" /></defs></svg>
