<?xml version="1.0" encoding="UTF-8" standalone="no"?><!DOCTYPE svg PUBLIC "-//W3C//DTD SVG 1.1//EN" "http://www.w3.org/Graphics/SVG/1.1/DTD/svg11.dtd"><svg width="100%" height="100%" viewBox="0 0 1920 1080" version="1.1" xmlns="http://www.w3.org/2000/svg" xmlns:xlink="http://www.w3.org/1999/xlink" xml:space="preserve" xmlns:serif="http://www.serif.com/" style="fill-rule:evenodd;clip-rule:evenodd;stroke-linejoin:round;stroke-miterlimit:2;"><rect x="0" y="0" width="1920" height="1080" style="fill:#f8f7fa;"/><g id="Logo_Only"><circle id="Background" cx="960" cy="540" r="175" style="fill:#fff;"/><g id="Logo-3"><path id="C" d="M961.626,598.33c-32.216,-0 -58.341,-26.115 -58.341,-58.33c0,-32.216 26.115,-58.33 58.341,-58.33c16.112,0 30.692,6.534 41.25,17.08l20.63,-20.62c-15.836,-15.834 -37.711,-25.63 -61.88,-25.63c-48.329,0 -87.51,39.172 -87.51,87.5c-0,48.329 39.181,87.5 87.51,87.5c24.169,0 46.044,-9.805 61.88,-25.651l-20.62,-20.62c-10.557,10.567 -25.137,17.101 -41.25,17.101l-0.01,-0Z" style="fill:#e6e6e6;fill-rule:nonzero;"/><path id="G" d="M1108.01,538.971l-104.549,0l59.184,59.173c-20.146,34.974 -57.908,58.516 -101.164,58.516c-64.432,0 -116.67,-52.229 -116.67,-116.671c-0,-64.441 52.228,-116.659 116.669,-116.659c32.216,0 61.386,13.057 82.5,34.171l20.62,-20.62c-26.392,-26.392 -62.847,-42.711 -103.119,-42.711c-80.545,0 -145.84,65.286 -145.84,145.83c-0,80.545 65.295,145.83 145.83,145.83c51.281,0 96.369,-26.474 122.37,-66.489l0.01,-0c15.259,-23.038 24.149,-50.665 24.149,-80.38l0.01,0.01Z" style="fill:#e6e6e6;fill-rule:nonzero;"/></g></g></svg>